<?xml version="1.0" standalone="no"?>
<svg xmlns:xlink="http://www.w3.org/1999/xlink" id="wave" style="transform:rotate(0deg); transition: 0.3s" viewBox="0 0 1440 490" version="1.1" xmlns="http://www.w3.org/2000/svg"><defs><linearGradient id="sw-gradient-0" x1="0" x2="0" y1="1" y2="0"><stop stop-color="rgba(230, 194, 81, 1)" offset="0%"/><stop stop-color="rgba(255, 193.389, 0, 1)" offset="100%"/></linearGradient></defs><path style="transform:translate(0, 0px); opacity:1" fill="url(#sw-gradient-0)" d="M0,49L24,57.2C48,65,96,82,144,106.2C192,131,240,163,288,196C336,229,384,261,432,261.3C480,261,528,229,576,196C624,163,672,131,720,163.3C768,196,816,294,864,310.3C912,327,960,261,1008,220.5C1056,180,1104,163,1152,130.7C1200,98,1248,49,1296,81.7C1344,114,1392,229,1440,236.8C1488,245,1536,147,1584,138.8C1632,131,1680,212,1728,277.7C1776,343,1824,392,1872,375.7C1920,359,1968,278,2016,204.2C2064,131,2112,65,2160,89.8C2208,114,2256,229,2304,261.3C2352,294,2400,245,2448,220.5C2496,196,2544,196,2592,228.7C2640,261,2688,327,2736,326.7C2784,327,2832,261,2880,212.3C2928,163,2976,131,3024,130.7C3072,131,3120,163,3168,155.2C3216,147,3264,98,3312,122.5C3360,147,3408,245,3432,294L3456,343L3456,490L3432,490C3408,490,3360,490,3312,490C3264,490,3216,490,3168,490C3120,490,3072,490,3024,490C2976,490,2928,490,2880,490C2832,490,2784,490,2736,490C2688,490,2640,490,2592,490C2544,490,2496,490,2448,490C2400,490,2352,490,2304,490C2256,490,2208,490,2160,490C2112,490,2064,490,2016,490C1968,490,1920,490,1872,490C1824,490,1776,490,1728,490C1680,490,1632,490,1584,490C1536,490,1488,490,1440,490C1392,490,1344,490,1296,490C1248,490,1200,490,1152,490C1104,490,1056,490,1008,490C960,490,912,490,864,490C816,490,768,490,720,490C672,490,624,490,576,490C528,490,480,490,432,490C384,490,336,490,288,490C240,490,192,490,144,490C96,490,48,490,24,490L0,490Z"/></svg>