<?xml version="1.0" standalone="no"?>
<svg xmlns:xlink="http://www.w3.org/1999/xlink" id="wave" style="transform:rotate(0deg); transition: 0.3s" viewBox="0 0 1440 490" version="1.1" xmlns="http://www.w3.org/2000/svg"><defs><linearGradient id="sw-gradient-0" x1="0" x2="0" y1="1" y2="0"><stop stop-color="rgba(230, 194, 81, 1)" offset="0%"/><stop stop-color="rgba(255, 193.389, 0, 1)" offset="100%"/></linearGradient></defs><path style="transform:translate(0, 0px); opacity:1" fill="url(#sw-gradient-0)" d="M0,196L24,220.5C48,245,96,294,144,277.7C192,261,240,180,288,147C336,114,384,131,432,138.8C480,147,528,147,576,163.3C624,180,672,212,720,261.3C768,310,816,376,864,367.5C912,359,960,278,1008,277.7C1056,278,1104,359,1152,334.8C1200,310,1248,180,1296,171.5C1344,163,1392,278,1440,302.2C1488,327,1536,261,1584,261.3C1632,261,1680,327,1728,334.8C1776,343,1824,294,1872,236.8C1920,180,1968,114,2016,81.7C2064,49,2112,49,2160,98C2208,147,2256,245,2304,245C2352,245,2400,147,2448,98C2496,49,2544,49,2592,81.7C2640,114,2688,180,2736,171.5C2784,163,2832,82,2880,49C2928,16,2976,33,3024,65.3C3072,98,3120,147,3168,196C3216,245,3264,294,3312,269.5C3360,245,3408,147,3432,98L3456,49L3456,490L3432,490C3408,490,3360,490,3312,490C3264,490,3216,490,3168,490C3120,490,3072,490,3024,490C2976,490,2928,490,2880,490C2832,490,2784,490,2736,490C2688,490,2640,490,2592,490C2544,490,2496,490,2448,490C2400,490,2352,490,2304,490C2256,490,2208,490,2160,490C2112,490,2064,490,2016,490C1968,490,1920,490,1872,490C1824,490,1776,490,1728,490C1680,490,1632,490,1584,490C1536,490,1488,490,1440,490C1392,490,1344,490,1296,490C1248,490,1200,490,1152,490C1104,490,1056,490,1008,490C960,490,912,490,864,490C816,490,768,490,720,490C672,490,624,490,576,490C528,490,480,490,432,490C384,490,336,490,288,490C240,490,192,490,144,490C96,490,48,490,24,490L0,490Z"/></svg>