<?xml version="1.0" standalone="no"?>
<svg xmlns:xlink="http://www.w3.org/1999/xlink" id="wave" style="transform:rotate(0deg); transition: 0.3s" viewBox="0 0 1440 490" version="1.1" xmlns="http://www.w3.org/2000/svg"><defs><linearGradient id="sw-gradient-0" x1="0" x2="0" y1="1" y2="0"><stop stop-color="rgba(137, 53, 175, 1)" offset="0%"/><stop stop-color="rgba(232.547, 187.238, 253.043, 1)" offset="100%"/></linearGradient></defs><path style="transform:translate(0, 0px); opacity:1" fill="url(#sw-gradient-0)" d="M0,294L26.7,261.3C53.3,229,107,163,160,187.8C213.3,212,267,327,320,334.8C373.3,343,427,245,480,212.3C533.3,180,587,212,640,253.2C693.3,294,747,343,800,343C853.3,343,907,294,960,253.2C1013.3,212,1067,180,1120,138.8C1173.3,98,1227,49,1280,40.8C1333.3,33,1387,65,1440,73.5C1493.3,82,1547,65,1600,114.3C1653.3,163,1707,278,1760,343C1813.3,408,1867,425,1920,408.3C1973.3,392,2027,343,2080,277.7C2133.3,212,2187,131,2240,114.3C2293.3,98,2347,147,2400,138.8C2453.3,131,2507,65,2560,32.7C2613.3,0,2667,0,2720,40.8C2773.3,82,2827,163,2880,236.8C2933.3,310,2987,376,3040,359.3C3093.3,343,3147,245,3200,245C3253.3,245,3307,343,3360,375.7C3413.3,408,3467,376,3520,351.2C3573.3,327,3627,310,3680,285.8C3733.3,261,3787,229,3813,212.3L3840,196L3840,490L3813.3,490C3786.7,490,3733,490,3680,490C3626.7,490,3573,490,3520,490C3466.7,490,3413,490,3360,490C3306.7,490,3253,490,3200,490C3146.7,490,3093,490,3040,490C2986.7,490,2933,490,2880,490C2826.7,490,2773,490,2720,490C2666.7,490,2613,490,2560,490C2506.7,490,2453,490,2400,490C2346.7,490,2293,490,2240,490C2186.7,490,2133,490,2080,490C2026.7,490,1973,490,1920,490C1866.7,490,1813,490,1760,490C1706.7,490,1653,490,1600,490C1546.7,490,1493,490,1440,490C1386.7,490,1333,490,1280,490C1226.7,490,1173,490,1120,490C1066.7,490,1013,490,960,490C906.7,490,853,490,800,490C746.7,490,693,490,640,490C586.7,490,533,490,480,490C426.7,490,373,490,320,490C266.7,490,213,490,160,490C106.7,490,53,490,27,490L0,490Z"/></svg>