<?xml version="1.0" standalone="no"?>
<svg xmlns:xlink="http://www.w3.org/1999/xlink" id="wave" style="transform:rotate(0deg); transition: 0.3s" viewBox="0 0 1440 490" version="1.1" xmlns="http://www.w3.org/2000/svg"><defs><linearGradient id="sw-gradient-0" x1="0" x2="0" y1="1" y2="0"><stop stop-color="rgba(137, 53, 175, 1)" offset="0%"/><stop stop-color="rgba(232.547, 187.238, 253.043, 1)" offset="100%"/></linearGradient></defs><path style="transform:translate(0, 0px); opacity:1" fill="url(#sw-gradient-0)" d="M0,294L26.7,245C53.3,196,107,98,160,49C213.3,0,267,0,320,0C373.3,0,427,0,480,57.2C533.3,114,587,229,640,294C693.3,359,747,376,800,392C853.3,408,907,425,960,383.8C1013.3,343,1067,245,1120,220.5C1173.3,196,1227,245,1280,245C1333.3,245,1387,196,1440,163.3C1493.3,131,1547,114,1600,106.2C1653.3,98,1707,98,1760,122.5C1813.3,147,1867,196,1920,253.2C1973.3,310,2027,376,2080,375.7C2133.3,376,2187,310,2240,277.7C2293.3,245,2347,245,2400,253.2C2453.3,261,2507,278,2560,253.2C2613.3,229,2667,163,2720,155.2C2773.3,147,2827,196,2880,236.8C2933.3,278,2987,310,3040,318.5C3093.3,327,3147,310,3200,302.2C3253.3,294,3307,294,3360,285.8C3413.3,278,3467,261,3520,285.8C3573.3,310,3627,376,3680,351.2C3733.3,327,3787,212,3813,155.2L3840,98L3840,490L3813.3,490C3786.7,490,3733,490,3680,490C3626.7,490,3573,490,3520,490C3466.7,490,3413,490,3360,490C3306.7,490,3253,490,3200,490C3146.7,490,3093,490,3040,490C2986.7,490,2933,490,2880,490C2826.7,490,2773,490,2720,490C2666.7,490,2613,490,2560,490C2506.7,490,2453,490,2400,490C2346.7,490,2293,490,2240,490C2186.7,490,2133,490,2080,490C2026.7,490,1973,490,1920,490C1866.7,490,1813,490,1760,490C1706.7,490,1653,490,1600,490C1546.7,490,1493,490,1440,490C1386.7,490,1333,490,1280,490C1226.7,490,1173,490,1120,490C1066.7,490,1013,490,960,490C906.7,490,853,490,800,490C746.7,490,693,490,640,490C586.7,490,533,490,480,490C426.7,490,373,490,320,490C266.7,490,213,490,160,490C106.7,490,53,490,27,490L0,490Z"/></svg>