<?xml version="1.0" standalone="no"?>
<svg xmlns:xlink="http://www.w3.org/1999/xlink" id="wave" style="transform:rotate(180deg); transition: 0.3s" viewBox="0 0 1440 490" version="1.1" xmlns="http://www.w3.org/2000/svg"><defs><linearGradient id="sw-gradient-0" x1="0" x2="0" y1="1" y2="0"><stop stop-color="rgba(253.043, 195.379, 14.375, 1)" offset="0%"/><stop stop-color="rgba(230, 194, 81, 1)" offset="100%"/></linearGradient></defs><path style="transform:translate(0, 0px); opacity:1" fill="url(#sw-gradient-0)" d="M0,147L17.1,122.5C34.3,98,69,49,103,73.5C137.1,98,171,196,206,236.8C240,278,274,261,309,285.8C342.9,310,377,376,411,383.8C445.7,392,480,343,514,326.7C548.6,310,583,327,617,351.2C651.4,376,686,408,720,367.5C754.3,327,789,212,823,147C857.1,82,891,65,926,57.2C960,49,994,49,1029,114.3C1062.9,180,1097,310,1131,375.7C1165.7,441,1200,441,1234,416.5C1268.6,392,1303,343,1337,302.2C1371.4,261,1406,229,1440,253.2C1474.3,278,1509,359,1543,367.5C1577.1,376,1611,310,1646,253.2C1680,196,1714,147,1749,179.7C1782.9,212,1817,327,1851,375.7C1885.7,425,1920,408,1954,392C1988.6,376,2023,359,2057,310.3C2091.4,261,2126,180,2160,187.8C2194.3,196,2229,294,2263,277.7C2297.1,261,2331,131,2366,106.2C2400,82,2434,163,2451,204.2L2468.6,245L2468.6,490L2451.4,490C2434.3,490,2400,490,2366,490C2331.4,490,2297,490,2263,490C2228.6,490,2194,490,2160,490C2125.7,490,2091,490,2057,490C2022.9,490,1989,490,1954,490C1920,490,1886,490,1851,490C1817.1,490,1783,490,1749,490C1714.3,490,1680,490,1646,490C1611.4,490,1577,490,1543,490C1508.6,490,1474,490,1440,490C1405.7,490,1371,490,1337,490C1302.9,490,1269,490,1234,490C1200,490,1166,490,1131,490C1097.1,490,1063,490,1029,490C994.3,490,960,490,926,490C891.4,490,857,490,823,490C788.6,490,754,490,720,490C685.7,490,651,490,617,490C582.9,490,549,490,514,490C480,490,446,490,411,490C377.1,490,343,490,309,490C274.3,490,240,490,206,490C171.4,490,137,490,103,490C68.6,490,34,490,17,490L0,490Z"/></svg>